<?xml version="1.0" encoding="UTF-8" standalone="no"?>
<!-- Generator: Adobe Illustrator 19.1.0, SVG Export Plug-In . SVG Version: 6.00 Build 0)  -->

<svg
   xmlns:dc="http://purl.org/dc/elements/1.1/"
   xmlns:cc="http://creativecommons.org/ns#"
   xmlns:rdf="http://www.w3.org/1999/02/22-rdf-syntax-ns#"
   xmlns:svg="http://www.w3.org/2000/svg"
   xmlns="http://www.w3.org/2000/svg"
   xmlns:sodipodi="http://sodipodi.sourceforge.net/DTD/sodipodi-0.dtd"
   xmlns:inkscape="http://www.inkscape.org/namespaces/inkscape"
   version="1.1"
   id="Layer_1"
   x="0px"
   y="0px"
   width="70px"
   height="70px"
   viewBox="0 0 70 70"
   style="enable-background:new 0 0 70 70;"
   xml:space="preserve"
   inkscape:version="0.91 r13725"
   sodipodi:docname="icon.svg"
   inkscape:export-filename="/home/radzik/Dokumenty/youtrack-printer/icon.png"
   inkscape:export-xdpi="41.139999"
   inkscape:export-ydpi="41.139999"><metadata
     id="metadata62"><rdf:RDF><cc:Work
         rdf:about=""><dc:format>image/svg+xml</dc:format><dc:type
           rdf:resource="http://purl.org/dc/dcmitype/StillImage" /></cc:Work></rdf:RDF></metadata><defs
     id="defs60" /><sodipodi:namedview
     pagecolor="#ffffff"
     bordercolor="#666666"
     borderopacity="1"
     objecttolerance="10"
     gridtolerance="10"
     guidetolerance="10"
     inkscape:pageopacity="0"
     inkscape:pageshadow="2"
     inkscape:window-width="1920"
     inkscape:window-height="1027"
     id="namedview58"
     showgrid="false"
     inkscape:zoom="4.76792"
     inkscape:cx="30.135031"
     inkscape:cy="11.887681"
     inkscape:window-x="0"
     inkscape:window-y="0"
     inkscape:window-maximized="1"
     inkscape:current-layer="Layer_1"
     showguides="true"
     inkscape:guide-bbox="true" /><g
     id="g5"
     style="opacity:0.8"><g
       id="g7"
       style=""><linearGradient
         gradientTransform="matrix(1,0,0,-1,0,71.0471)"
         y2="42.2878"
         x2="64.105797"
         y1="16.2945"
         x1="7.0830002"
         gradientUnits="userSpaceOnUse"
         id="SVGID_1_"><stop
           id="stop10"
           style="stop-color:#905CFB"
           offset="0" /><stop
           id="stop12"
           style="stop-color:#6677F8"
           offset="0.1649" /><stop
           id="stop14"
           style="stop-color:#3596F5"
           offset="0.3776" /><stop
           id="stop16"
           style="stop-color:#17A9F3"
           offset="0.5401" /><stop
           id="stop18"
           style="stop-color:#0CB0F2"
           offset="0.6317" /></linearGradient><path
         inkscape:connector-curvature="0"
         id="path20"
         d="M 66.9,47.5 C 66.7,47.3 53.8,34.9 53.8,34.9 c 0,0 9.8,-10.4 12.4,-13 0.8,-0.8 1.5,-1.6 2,-2.6 C 71.8,13.2 69.7,5.4 63.6,1.8 59.1,-0.8 53.5,-0.4 49.5,2.6 48.8,3.1 48.2,3.6 47.6,4.2 47.3,4.6 33.7,17 21.9,27.8 L 44,41.8 20.8,67.9 c -1.4,1 -2.8,1.6 -4.3,1.9 0.3,0 0.5,0 0.8,-0.1 C 21.9,69 61.2,62.4 63.1,62 65.4,61.6 67.5,60.2 68.8,58.1 71,54.5 70,50 66.9,47.5 Z"
         style="fill:url(#SVGID_1_)" /><linearGradient
         gradientTransform="matrix(1,0,0,-1,0,71.0471)"
         y2="68.744202"
         x2="1.0678999"
         y1="42.916199"
         x1="30.309999"
         gradientUnits="userSpaceOnUse"
         id="SVGID_2_"><stop
           id="stop23"
           style="stop-color:#905CFB"
           offset="0" /><stop
           id="stop25"
           style="stop-color:#A554E6"
           offset="7.176042e-002" /><stop
           id="stop27"
           style="stop-color:#D641B5"
           offset="0.2523" /><stop
           id="stop29"
           style="stop-color:#F43597"
           offset="0.3901" /><stop
           id="stop31"
           style="stop-color:#FF318C"
           offset="0.4677" /></linearGradient><path
         inkscape:connector-curvature="0"
         id="path33"
         d="M 45.9,30.5 C 45.5,27.8 44.1,25.6 42.1,24 40,22.4 23.8,5.6 22,3.7 19.2,1 15.2,-0.5 11.1,0.2 c -7,1 -11.9,7.6 -10.8,14.6 0.5,3.5 2.5,6.5 5.1,8.4 2.6,2 23,16 24.3,17 2.1,1.6 4.9,2.5 7.7,2 5.5,-1 9.4,-6.2 8.5,-11.7 z"
         style="fill:url(#SVGID_2_)" /></g><linearGradient
       gradientTransform="matrix(1,0,0,-1,0,71.0471)"
       y2="55.8638"
       x2="74.022598"
       y1="12.3617"
       x1="4.9829001"
       gradientUnits="userSpaceOnUse"
       id="SVGID_3_"><stop
         id="stop36"
         style="stop-color:#905CFB"
         offset="0" /><stop
         id="stop38"
         style="stop-color:#6677F8"
         offset="0.1649" /><stop
         id="stop40"
         style="stop-color:#3596F5"
         offset="0.3776" /><stop
         id="stop42"
         style="stop-color:#17A9F3"
         offset="0.5401" /><stop
         id="stop44"
         style="stop-color:#0CB0F2"
         offset="0.6317" /></linearGradient><path
       inkscape:connector-curvature="0"
       id="path46"
       d="m 23,67.8 c 0.1,0 23.3,-26.1 23.3,-26.1 L 22.9,26.9 c -8.3,7.6 -16,14.5 -17.8,16.2 -1.1,1 -2.2,2.3 -3,3.7 -4.3,7.4 -1.8,16.8 5.6,21.1 3,1.7 9.8,3.8 15.3,-0.1 z"
       style="fill:url(#SVGID_3_)" /></g><path
     id="path4171"
     d="m 41.749999,23.750001 12.375001,0 -12.375001,-12.375 0,12.375 M 26,8.0000003 l 17.999999,0 L 57.5,21.500001 57.5,48.5 a 4.5,4.5 0 0 1 -4.500001,4.500001 l -26.999999,0 c -2.4975,0 -4.5,-2.025001 -4.5,-4.500001 l 0,-36 A 4.5,4.5 0 0 1 26,8.0000003 M 17,17.000001 17,57.5 l 35.999999,0 0,4.5 L 17,62 a 4.5,4.5 0 0 1 -4.5,-4.5 l 0,-40.499999 4.5,0 z"
     inkscape:connector-curvature="0"
     style="fill:#333333" /></svg>